<?xml version="1.0" encoding="utf-8"?>
<!-- Generator: Adobe Illustrator 24.3.0, SVG Export Plug-In . SVG Version: 6.00 Build 0)  -->
<svg version="1.1" id="Layer_1" xmlns="http://www.w3.org/2000/svg" xmlns:xlink="http://www.w3.org/1999/xlink" x="0px" y="0px"
	 viewBox="0 0 44 44" style="enable-background:new 0 0 44 44;" xml:space="preserve">
<style type="text/css">
	.st0{fill:#FFCE00;}
</style>
<g id="moon">
	<g>
		<g>
			<circle class="st0" cx="4" cy="9" r="1"/>
		</g>
		<g>
			<circle class="st0" cx="10" cy="7" r="1"/>
		</g>
		<g>
			<circle class="st0" cx="6" cy="14" r="1"/>
		</g>
		<g>
			<circle class="st0" cx="40" cy="33" r="1"/>
		</g>
		<g>
			<circle class="st0" cx="4" cy="25" r="1"/>
		</g>
		<g>
			<path class="st0" d="M37,21h-8c-0.6,0-1-0.4-1-1s0.4-1,1-1h8c0.6,0,1,0.4,1,1S37.6,21,37,21z"/>
		</g>
		<g>
			<path class="st0" d="M25,21h-2c-0.6,0-1-0.4-1-1s0.4-1,1-1h2c0.6,0,1,0.4,1,1S25.6,21,25,21z"/>
		</g>
		<g>
			<path class="st0" d="M39.5,8c-0.5,0-0.9,0.1-1.4,0.2C37.2,6.8,35.7,6,34,6c-2.1,0-4,1.3-4.7,3.2C28.9,9.1,28.5,9,28,9
				c-2.2,0-4,1.8-4,4s1.8,4,4,4h11.5c2.5,0,4.5-2,4.5-4.5S42,8,39.5,8z M39.5,15h-1.1c0.3-0.6,0.6-1.3,0.6-2c0-0.6-0.4-1-1-1
				s-1,0.4-1,1c0,1.1-0.9,2-2,2h-7c-1.1,0-2-0.9-2-2s0.9-2,2-2c0.5,0,1,0.2,1.3,0.5c0.3,0.3,0.7,0.3,1.1,0.2
				c0.4-0.1,0.6-0.5,0.6-0.9C31.1,9.3,32.4,8,34,8c1.2,0,2.3,0.7,2.8,1.9c0.1,0.3,0.3,0.5,0.6,0.6c0.3,0.1,0.6,0.1,0.8-0.1
				c0.4-0.2,0.8-0.4,1.3-0.4c1.4,0,2.5,1.1,2.5,2.5S40.9,15,39.5,15z"/>
		</g>
		<g>
			<path class="st0" d="M40.4,22.7c-0.4-0.2-0.9-0.1-1.2,0.3c-2.3,2.9-5.8,4.6-9.5,4.6c-6.7,0-12.2-5.5-12.2-12.2
				c0-3.7,1.7-7.2,4.6-9.5c0.4-0.3,0.5-0.8,0.3-1.2c-0.2-0.4-0.6-0.7-1.1-0.6C13,5.4,7,12.5,7,20.9c0,2,0.4,4,1,5.8l0,0
				c-2.1,1-3.6,3-4,5.3c0,0,0,0-0.1,0c-2.2,0-4,1.8-4,4s1.8,4,4,4h14c1.8,0,3.4-0.8,4.5-2.1c0.5,0,1.1,0.1,1.6,0.1
				c8.4,0,15.5-6,16.9-14.3C41.1,23.3,40.8,22.8,40.4,22.7z M18,38H9c-1.1,0-2-0.9-2-2c0-0.6-0.4-1-1-1s-1,0.4-1,1
				c0,0.7,0.2,1.4,0.6,2H4c-1.1,0-2-0.9-2-2s0.9-2,2-2c0.2,0,0.4,0,0.7,0.1C5,34.2,5.3,34.2,5.6,34C5.9,33.8,6,33.5,6,33.2
				c0,0,0-0.1,0-0.2c0-2.8,2.2-5,5-5c1.6,0,3.1,0.8,4.1,2.1l0,0c0.6,0.8,0.9,1.8,0.9,2.9c0,0.6,0.4,1,1,1s1-0.4,1-1
				c0-1-0.2-2-0.7-2.9c0.2,0,0.4-0.1,0.7-0.1c2.2,0,4,1.8,4,4S20.2,38,18,38z M24.1,36c-0.2,0-0.3,0-0.5,0l0,0
				c0.2-0.6,0.3-1.3,0.3-2c0-3.3-2.7-6-6-6c-0.6,0-1.2,0.1-1.8,0.3C14.9,26.8,13,26,11,26c-0.4,0-0.7,0-1.1,0.1
				C9.3,24.5,9,22.7,9,20.9C9,14.7,12.7,9.3,18.2,7c-1.7,2.4-2.7,5.3-2.7,8.3c0,7.8,6.4,14.2,14.2,14.2c3,0,5.9-1,8.3-2.7
				C35.7,32.3,30.3,36,24.1,36z"/>
		</g>
	</g>
</g>
</svg>
